<svg aria-hidden="true" style="position: absolute; width: 0; height: 0; overflow: hidden;" version="1.1" xmlns="http://www.w3.org/2000/svg" xmlns:xlink="http://www.w3.org/1999/xlink">
<defs>
<symbol id="icon-book" viewBox="0 0 32 32">
<path d="M19.428 9.083h7.998v2.297h-7.998v-2.297zM19.428 14.825h7.998v2.297h-7.998v-2.297zM19.428 20.567h7.998v2.297h-7.998v-2.297z"></path>
<path d="M29.711 3.341h-27.423c-0.606 0.001-1.187 0.243-1.615 0.673-0.414 0.416-0.67 0.99-0.67 1.624v20.671c0 0.609 0.241 1.193 0.67 1.624 0.413 0.415 0.984 0.672 1.615 0.673h27.424c0.631-0.001 1.203-0.258 1.615-0.673l0-0c0.414-0.416 0.67-0.99 0.67-1.624v-20.671c0-0.609-0.241-1.193-0.67-1.624-0.413-0.415-0.984-0.672-1.615-0.673h-0zM2.288 5.638h12.569v20.671h-12.569v-20.671zM17.143 26.309v-20.671h12.569l0.003 20.671h-12.571z"></path>
</symbol>
<symbol id="icon-case" viewBox="0 0 32 32">
<path d="M28.393 8.35h-3.38v-3.38c-0-1.244-1.009-2.253-2.253-2.253 0 0 0 0 0 0h-13.519c-1.244 0-2.253 1.009-2.253 2.253v3.38h-3.38c-1.867 0-3.38 1.513-3.38 3.38v0 15.771c0 1.244 1.009 2.253 2.253 2.253h27.039c1.244 0 2.253-1.009 2.253-2.253v0-15.772c0-1.867-1.513-3.38-3.38-3.38v0zM9.24 4.97h13.519v3.38h-13.518v-3.38zM29.519 27.502h-27.038v-10.139h9.013v5.633h9.012v-5.633h9.013v10.14zM13.747 17.363h4.507v3.38h-4.507v-3.38zM2.481 15.109v-3.379c0-0.622 0.504-1.127 1.127-1.127v0h24.785c0.622 0 1.127 0.504 1.127 1.127v0 3.38h-27.039z"></path>
</symbol>
<symbol id="icon-clock" viewBox="0 0 32 32">
<path d="M29.815 10.365l-1.998 3.006c0.869 1.697 1.379 3.702 1.379 5.826 0 2.39-0.645 4.629-1.77 6.553l0.033-0.062h-22.522c-1.092-1.862-1.736-4.101-1.736-6.491 0-7.18 5.82-13 13-13 2.119 0 4.12 0.507 5.888 1.407l-0.074-0.034 3.007-2c-2.48-1.612-5.514-2.571-8.772-2.571-8.975 0-16.25 7.275-16.25 16.25 0 2.967 0.795 5.748 2.184 8.142l-0.042-0.078c0.569 0.973 1.606 1.618 2.794 1.625h22.507c0.004 0 0.008 0 0.012 0 1.197 0 2.242-0.647 2.806-1.61l0.008-0.015c1.369-2.331 2.177-5.133 2.177-8.125 0-3.286-0.976-6.345-2.653-8.902l0.038 0.062-0.017 0.017zM13.907 21.48c0.588 0.589 1.401 0.953 2.299 0.953s1.711-0.364 2.299-0.953l0-0 9.198-13.797-13.796 9.198c-0.589 0.588-0.953 1.401-0.953 2.3s0.364 1.711 0.953 2.299l0 0z"></path>
</symbol>
<symbol id="icon-crowd" viewBox="0 0 33 32">
<path d="M16.56 15.201c2.87 0 5.101-2.33 5.101-5.19s-2.338-5.084-5.207-5.084c-2.87 0-5.102 2.33-5.102 5.084 0 2.86 2.338 5.19 5.208 5.19zM16.454 7.046c0.107 0 0.107 0 0 0 1.7 0 3.082 1.377 3.082 3.071s-1.381 2.966-3.082 2.966c-0.003 0-0.006 0-0.010 0-1.638 0-2.965-1.328-2.965-2.965 0-0 0-0 0-0.001v0c0-1.695 1.381-3.071 2.975-3.071zM32.289 14.566c-2.020-1.801-4.677-2.754-7.44-2.648h-0.849c-0.213 0.847-0.531 1.589-0.956 2.224 0.637-0.106 1.169-0.106 1.807-0.106 2.019-0.106 4.038 0.53 5.633 1.695v7.627h2.125v-8.473l-0.319-0.318zM22.406 5.139c0.531-1.271 2.019-1.907 3.401-1.377 1.275 0.529 1.913 2.013 1.381 3.389-0.425 0.953-1.381 1.589-2.338 1.589-0.213 0-0.531 0-0.744-0.106 0.107 0.53 0.107 1.060 0.107 1.483v0.635c0.213 0 0.425 0.106 0.637 0.106 2.657 0 4.783-2.119 4.783-4.66 0-2.649-2.125-4.767-4.676-4.767-1.7 0-3.189 0.847-4.039 2.33 0.531 0.317 1.063 0.741 1.488 1.377zM10.29 14.248c-0.425-0.635-0.744-1.377-0.956-2.224h-0.851c-0.123-0.005-0.267-0.008-0.412-0.008-2.682 0-5.139 0.964-7.044 2.564l0.017-0.014-0.319 0.318v8.473h2.125v-7.627c1.7-1.165 3.613-1.8 5.633-1.694 0.637 0 1.275 0.106 1.807 0.211zM8.483 10.753c0.213 0 0.425 0 0.637-0.107v-0.635c0-0.529 0-1.059 0.107-1.483-0.213 0.106-0.531 0.106-0.744 0.106-1.382 0-2.551-1.165-2.551-2.542s1.169-2.542 2.551-2.542c1.063 0 2.019 0.635 2.444 1.589 0.425-0.53 1.063-1.059 1.594-1.483-1.381-2.225-4.251-2.967-6.483-1.589s-2.976 4.237-1.594 6.461c0.85 1.377 2.338 2.225 4.039 2.225zM25.275 20.921l-0.213-0.318c-2.125-2.33-5.101-3.707-8.289-3.601-3.189-0.106-6.271 1.271-8.396 3.601l-0.213 0.318v8.050c0 0.953 0.744 1.8 1.807 1.8h13.603c0.957 0 1.807-0.847 1.807-1.8v-8.050h-0.107zM23.15 28.653h-12.86v-6.991c1.701-1.695 4.039-2.542 6.483-2.542 2.338-0.107 4.676 0.847 6.376 2.542v6.991z"></path>
</symbol>
<symbol id="icon-graphic" viewBox="0 0 33 32">
<path d="M29.433 14.855c-0.404 0.003-0.789 0.082-1.142 0.223l0.021-0.007-3.827-3.19c0.097-0.325 0.155-0.699 0.161-1.086l0-0.003c0-2.252-1.777-4.062-3.989-4.062s-3.99 1.81-3.99 4.062c0 0.644 0.16 1.243 0.419 1.783l-4.643 5.587c-0.168-0.034-0.362-0.054-0.561-0.057l-0.002-0c-0.285 0-0.555 0.049-0.817 0.12l-4.090-4.165c0.072-0.265 0.12-0.54 0.12-0.83 0-1.801-1.424-3.25-3.192-3.25s-3.191 1.449-3.191 3.249c0 1.801 1.423 3.25 3.191 3.25 0.286 0 0.555-0.049 0.817-0.12l4.090 4.165c-0.073 0.248-0.117 0.534-0.12 0.829v0.002c0 1.8 1.424 3.25 3.192 3.25s3.192-1.45 3.192-3.25c0-0.385-0.077-0.747-0.197-1.091l4.649-5.593c0.363 0.107 0.737 0.184 1.133 0.184 0.662-0.004 1.284-0.173 1.829-0.467l-0.021 0.010 3.829 3.19c-0.030 0.171-0.047 0.343-0.051 0.517 0 1.8 1.423 3.25 3.192 3.25s3.191-1.449 3.191-3.25c0-1.8-1.423-3.25-3.191-3.25z"></path>
</symbol>
<symbol id="icon-location" viewBox="0 0 32 32">
<path d="M16.222 19.556c3.554 0 6.444-2.791 6.444-6.222s-2.89-6.222-6.444-6.222-6.444 2.791-6.444 6.222 2.89 6.222 6.444 6.222zM16.222 10.222c1.777 0 3.222 1.396 3.222 3.111s-1.445 3.111-3.222 3.111-3.222-1.396-3.222-3.111 1.445-3.111 3.222-3.111z"></path>
<path d="M15.304 31.262c0.255 0.183 0.574 0.293 0.918 0.293s0.663-0.11 0.923-0.297l-0.005 0.003c0.482-0.339 11.794-8.479 11.748-18.64 0-6.96-5.683-12.622-12.667-12.622s-12.667 5.663-12.667 12.615c-0.046 10.169 11.267 18.308 11.748 18.648zM16.222 3.156c5.239 0 9.5 4.246 9.5 9.475 0.033 7.002-6.948 13.29-9.5 15.352-2.551-2.064-9.533-8.353-9.5-15.36 0-5.221 4.261-9.467 9.5-9.467z"></path>
</symbol>
<symbol id="icon-mail" viewBox="0 0 32 32">
<path d="M31.266 0.961c-0.166-0.173-0.38-0.299-0.621-0.356l-0.009-0.002c-0.082-0.020-0.177-0.031-0.275-0.031-0.159 0-0.31 0.030-0.45 0.084l0.008-0.003-28.204 10.666c-0.244 0.096-0.453 0.267-0.6 0.489-0.142 0.213-0.227 0.474-0.227 0.756 0 0.001 0 0.002 0 0.003v-0c0 0.27 0.079 0.535 0.227 0.757s0.357 0.393 0.601 0.489l12.307 5.12 4.924 12.799c0.095 0.245 0.252 0.449 0.452 0.597l0.004 0.003c0.193 0.143 0.434 0.231 0.696 0.24l0.002 0c0.273-0.006 0.522-0.099 0.724-0.252l-0.003 0.002c0.209-0.158 0.368-0.373 0.456-0.621l0.003-0.009 10.255-29.332c0.088-0.236 0.108-0.493 0.061-0.741-0.050-0.257-0.167-0.481-0.331-0.66l0.001 0.001zM20.1 27.506l-3.577-9.333 6.141-6.387-1.808-1.88-6.192 6.44-8.923-3.773 22.473-8.44-8.115 23.373z"></path>
</symbol>
<symbol id="icon-partner1" viewBox="0 0 94 32">
<path d="M21.262 29.646l5.636 0.117c-2.205-0.766-4.066-1.594-5.844-2.555l0.209 0.103v2.335zM29.752 28.872v0.773l-2.854 0.117c5.371 1.824 10.286 2.072 13.935 1.050-2.928 0.029-6.738-0.379-11.080-1.941zM89.92 12.059c2.34 0 4.252-1.883 4.252-4.218s-1.898-3.575-4.252-3.575c-2.341 0-4.252 1.254-4.252 3.575s1.898 4.218 4.251 4.218zM85.653 29.646h8.518v-16.127h-8.519v16.127zM74.808 29.646h8.52v-28.503l-8.521 3.984v24.518zM70.246 12.219c-2.678-2.655-7.415-2.495-7.415-2.495s-4.754-0.16-7.417 2.496c-2.679 2.656-2.472 4.947-2.472 7.676s-0.206 5.006 2.472 7.662c2.678 2.656 7.416 2.496 7.416 2.496s4.752 0.16 7.416-2.496c2.679-2.656 2.472-4.933 2.472-7.662-0.015-2.744 0.192-5.035-2.472-7.676zM64.39 22.714c0 0.525-0.265 1.824-1.574 1.824s-1.574-1.298-1.574-1.824v-5.897c0-1.269 1.074-1.59 1.574-1.59s1.574 0.306 1.574 1.591v5.896zM48.763 12.22c-2.679-2.656-7.417-2.496-7.417-2.496s-4.738-0.16-7.415 2.496c-0.275 0.269-0.53 0.555-0.766 0.856l-0.014 0.019c-5.621-4.318-10.668-6.786-15.024-8.917v-3.021l-3.31 1.547c-8.006-3.225-13.097-2.656-14.319 0.015 0 0-3.664 4.787 9.094 16.171v10.756h8.519v-4.174c-1.128-0.721-2.058-1.375-2.961-2.063l0.107 0.078c-2.13-1.596-3.97-3.097-5.748-4.667l0.098 0.085v-4.525c1.927 2.146 4.488 4.582 7.857 7.342l0.662 0.525v-4.349c0-1.007 0.25-2.656 1.589-2.656s1.56 1.007 1.56 2.189v7.108c2.445 1.667 5.247 3.124 8.218 4.231l0.272 0.089v-13.704c0-2.729-1.971-5.458-5.974-5.458-0.017-0-0.036-0-0.056-0-2.375 0-4.453 1.27-5.592 3.167l-0.016 0.030v-7.925c6.166 3.051 12.346 6.787 14.7 8.508-1.501 2.131-1.369 4.101-1.369 6.378 0 2.729-0.206 5.006 2.472 7.662s7.416 2.496 7.416 2.496 4.753 0.16 7.417-2.496c2.678-2.656 2.457-4.933 2.457-7.662 0-2.7 0.221-4.992-2.457-7.632zM9.594 5.127v9.238c-7.166-7.954-5.723-11.091-5.179-11.544 1.987-1.664 5.518-1.168 9.476 0.306l-4.296 2zM42.921 22.714c0 0.525-0.265 1.824-1.574 1.824s-1.574-1.298-1.574-1.824v-5.897c0-1.269 1.074-1.59 1.574-1.59s1.574 0.306 1.574 1.591v5.896z"></path>
</symbol>
<symbol id="icon-partner2" viewBox="0 0 46 32">
<path d="M0.271 0.54h6.84v18.449c0 2.926 1.319 4.667 2.392 5.392-1.117 0.981-4.502 1.847-7.052-0.247-1.495-1.238-2.18-3.298-2.18-5.216v-18.378zM42.993 15.877v-1.945h2.092v-6.789h-2.294c-0.889-4.093-4.502-7.134-8.82-7.134-4.977 0-9.030 4.067-9.030 9.079v15.841c1.407 0.203 3.113-0.027 4.546-1.237 1.503-1.238 2.18-3.288 2.18-5.215v-0.592h3.412v-6.789h-3.412v-2.060c0-3.059 4.59-3.059 4.59 0v6.815c0 5.003 4.044 9.078 9.030 9.078v-6.762c-0.001 0-0.001 0-0.002 0-1.265 0-2.291-1.025-2.293-2.289v-0zM17.117 7.125v9.989c0 1.361-2.092 1.361-2.092 0v-9.989h-6.753v11.73c0 2.104 0.703 4.773 3.957 5.649 3.253 0.866 5.117-0.937 5.117-0.937-0.184 1.185-1.275 2.060-3.069 2.237-1.363 0.141-3.095-0.318-3.957-0.689v6.214c2.207 0.663 4.528 0.867 6.823 0.415 4.141-0.804 6.753-4.278 6.753-8.91v-15.753h-6.779v0.044z"></path>
</symbol>
<symbol id="icon-partner3" viewBox="0 0 44 32">
<path d="M43.52 0.062c-5.494 3.704-6.079 6.393-6.555 7.215-0.456 0.843-0.795 4.168-1.584 5.778-0.796 1.631-3.686 2.917-4.495 3.456-0.796 0.539-1.924 2.633-2.849 4.437-7.351-0.304-11.383 2.681-17.626 6.469 1.999-0.67 2.944-1.154 2.944-1.154 6.406-2.488 9.472-4.721 19.115-3.401 0.075 0 0.129 0.041 0.191 0.055 0.169 0.095 0.282 0.273 0.282 0.478 0 0.099-0.026 0.192-0.072 0.272l0.001-0.003-3.665 6.621c-0.138 0.263-0.409 0.439-0.722 0.439-0.060 0-0.118-0.006-0.174-0.019l0.005 0.001c-8.623-1.645-15.429 1.196-21.685 1.286-4.991 0.076-6.63-2.316-6.63-2.426 0-0.076 0.041-0.117 0.115-0.117 0 0 2.605 0 7.011-1.058 5.005-9.696 9.466-13.090 14.321-13.090 0 0 4.876 0 6.161 4.278 1.55-2.744 1.924-3.401 1.924-3.401 0.36-0.65 2.38-5.335 5.875-9.773 3.502-4.423 6.147-5.522 8.112-6.345z"></path>
</symbol>
<symbol id="icon-partner4" viewBox="0 0 77 32">
<path d="M19.762 2.823l-5.186 1.090-0.025 16.859c0 3.114 2.372 5.127 5.522 5.127 1.749 0 3.030-0.32 3.736-0.699v-4.002c-0.682 0.272-4.036 1.243-4.036-1.859v-7.482h4.036v-4.476h-4.037l-0.012-4.558zM30.433 8.932l-0.324-1.552h-4.599v18.138h5.306v-12.206c1.258-1.634 3.377-1.314 4.060-1.101v-4.829c-0.719-0.249-3.198-0.711-4.444 1.55zM41.488 0.372l-5.342 1.124v4.287l5.342-1.125v-4.286zM5.378 12.72c0-0.817 0.694-1.136 1.808-1.148 1.616 0 3.676 0.485 5.293 1.35v-4.949c-1.761-0.687-3.521-0.959-5.282-0.959-4.312 0-7.186 2.225-7.186 5.943 0 5.825 8.084 4.878 8.084 7.388 0 0.97-0.851 1.29-2.036 1.29-1.761 0-4.036-0.722-5.821-1.682v4.736c1.713 0.751 3.709 1.191 5.807 1.196h0.002c4.419 0 7.461-1.871 7.461-5.659 0-6.263-8.132-5.139-8.132-7.507zM76.651 16.663c0-5.387-2.635-9.637-7.69-9.637s-8.132 4.25-8.132 9.601c0 6.335 3.629 9.258 8.803 9.258 2.539 0 4.443-0.569 5.892-1.362v-3.954c-1.45 0.722-3.114 1.16-5.222 1.16-2.072 0-3.892-0.722-4.132-3.185h10.408c0.024-0.272 0.072-1.373 0.072-1.883zM66.123 14.674c0-2.368 1.474-3.362 2.803-3.362 1.305 0 2.695 0.994 2.695 3.362h-5.497zM52.602 7.026c-2.084 0-3.425 0.97-4.167 1.645l-0.275-1.302h-4.684v24.247l5.318-1.113 0.012-5.944c0.767 0.557 1.904 1.326 3.76 1.326 3.809 0 7.282-2.746 7.282-9.424 0.012-6.11-3.51-9.436-7.246-9.436zM51.332 21.529c-1.245 0-1.988-0.45-2.503-0.995l-0.036-7.814c0.551-0.604 1.317-1.042 2.538-1.042 1.941 0 3.282 2.155 3.282 4.901 0.012 2.83-1.305 4.949-3.282 4.949zM36.158 25.518h5.341v-18.137h-5.342v18.138z"></path>
</symbol>
<symbol id="icon-partner5" viewBox="0 0 53 32">
<path d="M15.181 11.677c-0.059 1.848 0.872 2.666 0.895 3.186-0.023 0.221-0.152 0.407-0.334 0.51l-0.003 0.002-1.053 0.731c-0.13 0.091-0.289 0.148-0.461 0.156l-0.002 0c-0.036-0.002-0.674 0.149-1.685-2.090-0.614 0.755-1.381 1.361-2.256 1.777l-0.039 0.017c-0.807 0.385-1.754 0.61-2.753 0.61-0.037 0-0.073-0-0.109-0.001l0.005 0c-1.339 0.072-4.97-0.754-4.783-4.587-0.131-3.123 2.802-5.063 5.836-4.899 0.584 0.002 1.778 0.030 3.866 0.512v-1.275c0.221-2.159-1.209-3.833-3.687-3.582-0.198 0.001-1.596-0.041-3.772 0.825-0.605 0.276-0.683 0.23-0.884 0.23-0.61 0-0.359-1.752-0.242-1.974 0.429-0.522 2.951-1.497 5.425-1.483 0.168-0.016 0.362-0.025 0.559-0.025 1.531 0 2.937 0.541 4.034 1.443l-0.011-0.009c0.503 0.556 0.902 1.219 1.156 1.948l0.012 0.040c0.192 0.547 0.303 1.177 0.303 1.833 0 0.159-0.006 0.316-0.019 0.471l0.001-0.020-0.001 5.653zM8.070 14.319c2.669-0.038 3.798-1.629 4.056-2.486 0.202-0.82 0.169-1.339 0.169-2.235-0.796-0.19-1.941-0.396-3.255-0.398-1.246-0.093-3.523 0.459-3.434 2.632-0.102 1.37 0.915 2.562 2.465 2.487zM22.133 16.2c-0.647 0.058-0.948-0.397-1.043-0.846l-4.098-13.433c-0.074-0.204-0.13-0.441-0.157-0.687l-0.001-0.014c-0.003-0.017-0.004-0.037-0.004-0.057 0-0.084 0.028-0.161 0.074-0.224l-0.001 0.001c0.059-0.079 0.146-0.133 0.247-0.149l0.002-0c0.019-0.003-0.176 0 1.831 0 0.722-0.072 0.957 0.492 1.033 0.846l2.939 11.49 2.729-11.49c0.044-0.263 0.242-0.903 1.053-0.836h1.412c0.179-0.015 0.914-0.041 1.043 0.846l2.75 11.637 3.034-11.637c0.039-0.178 0.224-0.928 1.043-0.846h1.622c0.070-0.010 0.506-0.066 0.432 0.7-0.035 0.151 0.281-0.87-4.34 13.862-0.095 0.45-0.397 0.905-1.044 0.846h-1.538c-0.901 0.094-1.030-0.788-1.043-0.877l-2.729-11.188-2.697 11.176c-0.013 0.089-0.142 0.971-1.043 0.877l-1.506 0.001zM44.636 16.659c-0.484 0.001-2.791-0.024-4.72-1.003-0.195-0.083-0.355-0.217-0.467-0.385l-0.002-0.004c-0.108-0.161-0.173-0.36-0.173-0.573 0-0.003 0-0.006 0-0.010v0.001-0.877c0-0.689 0.51-0.563 0.726-0.48 0.826 0.331 1.356 0.583 2.371 0.783 3.016 0.615 4.342-0.188 4.667-0.366 1.082-0.637 1.168-2.095 0.432-2.851-0.862-0.717-1.273-0.744-4.371-1.713-0.382-0.106-3.596-1.11-3.603-4.272-0.050-2.304 2.061-4.584 5.72-4.565 1.042-0.001 3.82 0.337 4.572 1.274 0.111 0.17 0.166 0.371 0.157 0.574v0.825c0 0.362-0.133 0.543-0.4 0.543-0.635-0.070-1.76-0.911-4.045-0.877-0.567-0.029-3.282 0.075-3.16 2.037-0.036 1.547 2.189 2.127 2.444 2.194 3 0.894 4.003 1.043 5.194 2.413 1.411 1.815 0.65 3.941 0.358 4.523-1.57 3.059-5.63 2.81-5.699 2.808zM47.944 25.214c-5.763 4.22-14.127 6.466-21.269 6.466-9.637 0.063-18.949-3.45-26.106-9.85-0.537-0.48-0.064-1.139 0.59-0.773 7.483 4.316 16.459 6.863 26.029 6.863 0.016 0 0.032 0 0.048-0h-0.002c7.184-0.039 14.011-1.521 20.22-4.172l-0.341 0.129c0.969-0.408 1.791 0.636 0.833 1.336zM50.346 22.498c-0.737-0.94-4.878-0.439-6.732-0.219-0.559 0.062-0.653-0.418-0.147-0.773 3.297-2.298 8.712-1.64 9.334-0.867 0.621 0.773-0.169 6.152-3.255 8.722-0.474 0.397-0.927 0.188-0.716-0.334 0.694-1.734 2.253-5.588 1.516-6.529z"></path>
</symbol>
<symbol id="icon-partner6" viewBox="0 0 34 32">
<path d="M29.776 12.345c-1.050 0-1.974 0.436-2.652 1.118-2.499-1.736-5.865-2.854-9.596-2.973l1.938-8.772 6.173 1.391c0 1.518 1.232 2.756 2.744 2.756 1.54 0 2.778-1.273 2.778-2.791s-1.232-2.791-2.778-2.791c-1.078 0-2.009 0.654-2.471 1.547l-6.818-1.518c-0.343-0.091-0.679 0.155-0.77 0.499l-2.128 9.672c-3.702 0.155-7.034 1.272-9.54 3.008-0.677-0.707-1.628-1.146-2.682-1.146-0.002 0-0.004 0-0.006 0h0c-3.891 0-5.165 5.244-1.603 7.036-0.126 0.555-0.182 1.146-0.182 1.736 0 5.892 6.608 10.664 14.72 10.664 8.147 0 14.754-4.773 14.754-10.663 0-0.59-0.063-1.209-0.217-1.764 3.492-1.799 2.205-7.008-1.666-7.008zM8.016 19.754c0-1.547 1.232-2.791 2.779-2.791 1.511 0 2.743 1.237 2.743 2.791 0 1.518-1.232 2.756-2.744 2.756-1.54 0.007-2.778-1.237-2.778-2.756zM23.015 26.326c-2.547 2.559-9.735 2.559-12.283 0-0.281-0.245-0.281-0.682 0-0.963 0.245-0.245 0.679-0.245 0.924 0 1.946 2.003 8.399 2.038 10.428 0 0.245-0.245 0.679-0.245 0.924 0 0.287 0.281 0.287 0.717 0.007 0.963zM22.959 22.516c-1.512 0-2.744-1.237-2.744-2.756 0-1.547 1.232-2.791 2.744-2.791 0.001 0 0.003 0 0.005 0 1.532 0 2.773 1.242 2.773 2.773 0 0.006-0 0.012-0 0.018v-0.001c-0.007 1.511-1.239 2.756-2.778 2.756z"></path>
</symbol>
<symbol id="icon-people" viewBox="0 0 32 32">
<path d="M18.237 8.772c-0.674 0.469-1.51 0.75-2.411 0.75-2.347 0-4.25-1.903-4.25-4.25 0-1.489 0.766-2.799 1.925-3.558l0.016-0.010c0.663-0.449 1.481-0.716 2.361-0.716 2.347 0 4.25 1.903 4.25 4.25 0 1.467-0.743 2.761-1.874 3.524l-0.015 0.010h-0.002zM17.057 3.472c-0.343-0.248-0.773-0.397-1.237-0.397-1.174 0-2.125 0.951-2.125 2.125 0 0.756 0.395 1.42 0.99 1.797l0.009 0.005c0.315 0.195 0.698 0.311 1.107 0.311 1.174 0 2.125-0.951 2.125-2.125 0-0.701-0.34-1.323-0.863-1.71l-0.006-0.004v-0.002zM22.604 3.536c0.497-0.338 1.111-0.54 1.772-0.54 0.881 0 1.679 0.359 2.254 0.939l0 0c0.577 0.581 0.933 1.381 0.933 2.265 0 1.325-0.802 2.463-1.946 2.955l-0.021 0.008c-0.361 0.155-0.782 0.246-1.223 0.246-0.88 0-1.677-0.359-2.251-0.938l-0-0c-0.578-0.581-0.935-1.382-0.935-2.266 0-1.106 0.558-2.081 1.409-2.659l0.011-0.007-0.002-0.002zM23.624 6.956c0.192 0.191 0.457 0.309 0.749 0.309 0.586 0 1.061-0.475 1.061-1.061 0-0.294-0.119-0.56-0.312-0.752l-0-0c-0.191-0.192-0.454-0.312-0.745-0.318l-0.001-0c-0.001 0-0.002 0-0.003 0-0.585 0-1.060 0.475-1.060 1.060 0 0.003 0 0.006 0 0.008v-0c0.001 0.283 0.112 0.555 0.31 0.757v-0.002zM5.654 25.399h3.847v2.135h-3.846c-0.701-0.006-1.334-0.295-1.79-0.759l-0-0c-0.457-0.464-0.74-1.101-0.74-1.805 0-0 0-0.001 0-0.001v0-3.846c-0.6-0.021-1.134-0.289-1.506-0.704l-0.002-0.002c-0.381-0.386-0.617-0.917-0.617-1.503 0-0.020 0-0.041 0.001-0.061l-0 0.003v-4.637c0.007-1.042 0.427-1.985 1.105-2.673l-0 0c0.673-0.68 1.604-1.103 2.633-1.112h3.912c-0.508 0.602-0.908 1.314-1.157 2.094l-0.012 0.044h-2.741c-0.449 0.013-0.853 0.199-1.148 0.493l0-0c-0.3 0.309-0.468 0.723-0.467 1.154v4.743h2.124v6.005c-0.001 0.011-0.002 0.024-0.002 0.037 0 0.109 0.041 0.209 0.108 0.285l-0-0c0.082 0.064 0.185 0.103 0.297 0.106h0.001v0.005zM21.167 11.548c-0.678-0.685-1.617-1.109-2.655-1.112h-5.27c-1.031 0.009-1.962 0.432-2.635 1.112l-0 0c-0.678 0.687-1.099 1.63-1.106 2.671v6.754c-0.003 0.58 0.218 1.139 0.616 1.56 0.375 0.417 0.909 0.684 1.505 0.705l0.004 0v4.937c-0 0.004-0 0.009-0 0.015 0 0.703 0.284 1.34 0.744 1.802l-0-0c0.368 0.345 0.841 0.583 1.366 0.661l0.014 0.002h4.251c1.206-0.162 2.127-1.185 2.127-2.423 0-0.020-0-0.040-0.001-0.060l0 0.003v-4.939c0.6-0.020 1.135-0.288 1.507-0.703l0.002-0.002c0.381-0.386 0.617-0.917 0.617-1.503 0-0.020-0-0.040-0.001-0.060l0 0.003v-6.753c0-0.002 0-0.003 0-0.005 0-1.038-0.413-1.98-1.085-2.669l0.001 0.001v0.002zM20.126 21.078h-2.126v7.098c-0.003 0.116-0.051 0.221-0.128 0.297l-0 0c-0.067 0.079-0.166 0.129-0.276 0.129-0.007 0-0.015-0-0.022-0.001l0.001 0h-3.421c-0.23-0.011-0.414-0.195-0.425-0.424l-0-0.001v-7.098h-2.104v-6.86c0-0.43 0.168-0.845 0.467-1.153 0.306-0.304 0.716-0.48 1.148-0.493h5.27c0.673 0.012 1.247 0.425 1.494 1.009l0.004 0.011c0.080 0.199 0.12 0.412 0.117 0.627v6.86zM26.097 27.532h-3.846v-2.136h3.825c0.113-0.003 0.216-0.043 0.298-0.107l-0.001 0.001c0.079-0.077 0.128-0.185 0.128-0.304 0-0.007-0-0.013-0-0.020l0 0.001v-6.005h2.125v-4.743c0-0.431-0.167-0.845-0.468-1.154-0.295-0.294-0.698-0.48-1.144-0.493l-0.003-0h-2.741c-0.261-0.824-0.661-1.536-1.178-2.147l0.008 0.009h3.91c0.991 0.010 1.938 0.409 2.636 1.112 0.678 0.688 1.098 1.631 1.105 2.672v4.638c0 0.58-0.22 1.136-0.614 1.557-0.382 0.409-0.912 0.674-1.505 0.708l-0.006 0v3.846c0 0 0 0.001 0 0.002 0 0.703-0.283 1.341-0.74 1.805l0-0c-0.456 0.463-1.088 0.752-1.788 0.759h-0.001zM7.376 2.996c-0.001 0-0.002 0-0.003 0-1.323 0-2.457 0.809-2.934 1.959l-0.008 0.021c-0.153 0.362-0.241 0.782-0.241 1.223 0 0.885 0.356 1.686 0.933 2.269l-0-0c0.577 0.582 1.376 0.942 2.259 0.942 1.757 0 3.181-1.424 3.181-3.181 0-0.009-0-0.019-0-0.028v0.001c0-0 0-0 0-0 0-1.324-0.802-2.462-1.946-2.953l-0.021-0.008c-0.36-0.154-0.78-0.244-1.22-0.245h-0zM7.376 7.271c-0.001 0-0.002 0-0.003 0-0.585 0-1.060-0.475-1.060-1.060 0-0.003 0-0.006 0-0.010v0c0.002-0.587 0.476-1.063 1.063-1.068h0c0.584 0.011 1.054 0.483 1.062 1.067v0.001c-0.001 0.588-0.475 1.065-1.062 1.070h-0z"></path>
</symbol>
<symbol id="icon-phone" viewBox="0 0 32 32">
<path d="M25.302 17.331c-0.305-0.305-0.725-0.494-1.19-0.494s-0.886 0.189-1.19 0.494l-2.684 2.684c-1.244-0.37-3.566-1.212-5.037-2.684s-2.314-3.794-2.684-5.038l2.684-2.684c0.305-0.304 0.494-0.725 0.494-1.19s-0.189-0.886-0.494-1.19l-6.735-6.735c-0.304-0.305-0.725-0.494-1.19-0.494s-0.886 0.189-1.19 0.494l-4.566 4.566c-0.61 0.609-0.987 1.451-0.987 2.381 0 0.012 0 0.025 0 0.037l-0-0.002c0.039 2.398 0.674 10.725 7.237 17.289s14.89 7.196 17.29 7.236h0.047c0.889 0 1.729-0.35 2.366-0.987l4.566-4.566c0.305-0.305 0.494-0.725 0.494-1.19s-0.189-0.886-0.494-1.19l-6.735-6.736zM25.088 28.632c-2.101-0.036-9.291-0.599-14.94-6.25-5.668-5.668-6.216-12.882-6.251-14.941l3.376-3.376 4.354 4.354-2.177 2.177c-0.305 0.305-0.493 0.726-0.493 1.191 0 0.122 0.013 0.241 0.038 0.356l-0.002-0.011c0.040 0.194 1.028 4.785 3.824 7.58s7.387 3.783 7.58 3.824c0.106 0.024 0.227 0.037 0.351 0.037 0.463 0 0.882-0.189 1.185-0.494l2.179-2.177 4.354 4.354-3.378 3.376z"></path>
</symbol>
<symbol id="icon-reward" viewBox="0 0 33 32">
<path d="M10.709 22.663c-0.541-0.543-0.259-0.39-1.563-0.741-0.591-0.16-1.112-0.466-1.582-0.833l-2.824 6.953c-0.273 0.673 0.237 1.404 0.96 1.377l3.279-0.125 2.255 2.393c0.182 0.192 0.438 0.312 0.723 0.312 0.415 0 0.77-0.254 0.919-0.615l0.002-0.007 3.239-7.977c-0.674 0.377-1.423 0.599-2.197 0.599-1.213 0-2.353-0.474-3.211-1.335zM28.485 28.043l-2.823-6.953c-0.471 0.367-0.991 0.673-1.583 0.833-1.311 0.353-1.023 0.199-1.563 0.74-0.817 0.825-1.949 1.336-3.202 1.336-0.004 0-0.007 0-0.011 0h0.001c-0.774 0-1.523-0.221-2.197-0.599l3.239 7.977c0.151 0.368 0.507 0.622 0.921 0.622 0.285 0 0.542-0.12 0.723-0.312l0-0 2.255-2.393 3.279 0.127c0.723 0.027 1.233-0.705 0.96-1.377zM21.031 21.249c0.951-0.972 1.060-0.889 2.413-1.259 0.872-0.25 1.541-0.932 1.768-1.794l0.004-0.018c0.465-1.775 0.345-1.56 1.615-2.859 0.633-0.647 0.88-1.59 0.648-2.473-0.465-1.774-0.465-1.527 0-3.302 0.054-0.199 0.086-0.427 0.086-0.662 0-0.704-0.28-1.343-0.735-1.812l0.001 0.001c-1.269-1.299-1.149-1.085-1.614-2.86-0.231-0.879-0.9-1.561-1.754-1.806l-0.018-0.004c-1.735-0.475-1.525-0.351-2.797-1.651-0.449-0.463-1.077-0.75-1.772-0.75-0.231 0-0.454 0.032-0.666 0.091l0.017-0.004c-1.734 0.475-1.492 0.475-3.229 0-0.195-0.055-0.418-0.087-0.649-0.087-0.695 0-1.322 0.287-1.77 0.749l-0.001 0.001c-1.27 1.299-1.060 1.175-2.796 1.651-0.872 0.25-1.541 0.932-1.767 1.794l-0.004 0.018c-0.465 1.775-0.345 1.561-1.615 2.86-0.454 0.468-0.735 1.106-0.735 1.811 0 0.236 0.031 0.464 0.090 0.681l-0.004-0.018c0.465 1.773 0.465 1.525 0 3.301-0.054 0.199-0.086 0.427-0.086 0.662 0 0.705 0.28 1.344 0.735 1.812l-0.001-0.001c1.27 1.299 1.149 1.085 1.615 2.86 0.231 0.879 0.9 1.561 1.753 1.806l0.018 0.004c1.393 0.381 1.497 0.321 2.413 1.259 0.449 0.463 1.076 0.75 1.77 0.75 0.492 0 0.949-0.144 1.334-0.392l-0.010 0.006c0.374-0.242 0.832-0.386 1.323-0.386s0.949 0.144 1.333 0.392l-0.010-0.006c0.375 0.242 0.832 0.386 1.324 0.386 0.694 0 1.321-0.287 1.769-0.749l0.001-0.001zM10.743 10.996c0-3.314 2.628-6.001 5.87-6.001s5.87 2.687 5.87 6.001c0 3.314-2.628 6.001-5.87 6.001s-5.87-2.687-5.87-6.001z"></path>
</symbol>
<symbol id="icon-shop" viewBox="0 0 32 32">
<path opacity="0.15" d="M29.1 9.167h-26.2c-0.012 0-0.020 0.008-0.020 0.020v3.603c0 2.363 1.96 4.279 4.372 4.279 0.006 0 0.012 0 0.019 0 1.604 0 3.007-0.859 3.774-2.141l0.011-0.020c0.117-0.198 0.329-0.329 0.572-0.329s0.455 0.131 0.57 0.326l0.002 0.003c0.776 1.302 2.177 2.161 3.779 2.161 0.007 0 0.015-0 0.022-0h-0.001c1.632 0 3.056-0.873 3.804-2.169 0.114-0.192 0.32-0.319 0.556-0.32h0.024c0.232 0 0.44 0.122 0.556 0.32 0.777 1.307 2.181 2.169 3.787 2.169 0.007 0 0.015-0 0.022-0h-0.001c2.412 0 4.372-1.917 4.372-4.28v-3.603c0-0.012-0.008-0.020-0.020-0.020z"></path>
<path d="M30.8 6.326v-5.061c0-0.7-0.572-1.265-1.28-1.265h-27.040c-0.708 0-1.28 0.565-1.28 1.265v5.061c-0.668 0.040-1.2 0.589-1.2 1.26v5.204c0 0.005-0 0.012-0 0.018 0 1 0.212 1.95 0.594 2.808l-0.017-0.044c0.172 0.403 0.384 0.782 0.624 1.141v13.632c0.005 0.7 0.573 1.265 1.273 1.265 0.002 0 0.005 0 0.007-0h27.040c0.708 0 1.28-0.565 1.28-1.265v-13.632c0.244-0.36 0.453-0.743 0.624-1.141 0.38-0.881 0.576-1.818 0.576-2.782v-5.203c-0.004-0.674-0.532-1.223-1.197-1.261l-0.003-0zM4.080 2.845h23.84v3.477h-23.84v-3.477zM18.56 28.769h-5.12v-4.113h5.12v4.113zM27.936 28.769h-6.816v-5.377c-0.003-0.699-0.571-1.265-1.271-1.265-0.003 0-0.007 0-0.010 0h-7.68c-0.708 0-1.28 0.565-1.28 1.265v5.377h-6.8v-9.569c0.116 0.055 0.236 0.11 0.36 0.157 0.826 0.352 1.786 0.557 2.795 0.557 0.007 0 0.015 0 0.022-0h-0.001c0.003 0 0.007 0 0.012 0 1.638 0 3.151-0.537 4.372-1.445l-0.020 0.014c0.003-0.002 0.008-0.003 0.012-0.003s0.009 0.001 0.012 0.003l-0-0c0.477 0.353 0.997 0.647 1.548 0.873 0.826 0.352 1.786 0.557 2.795 0.557 0.007 0 0.015 0 0.022-0h-0.001c0.003 0 0.007 0 0.012 0 1.638 0 3.151-0.537 4.372-1.445l-0.020 0.014c0.003-0.002 0.008-0.003 0.012-0.003s0.009 0.001 0.012 0.003l-0-0c0.477 0.353 0.997 0.647 1.548 0.873 0.826 0.352 1.786 0.557 2.795 0.557 0.007 0 0.015 0 0.022-0h-0.001c0.976 0 1.92-0.185 2.816-0.557 0.12-0.052 0.24-0.103 0.36-0.159v9.57zM29.12 12.79c0 2.363-1.96 4.279-4.372 4.279-0.006 0-0.013 0-0.021 0-1.606 0-3.011-0.862-3.776-2.149l-0.011-0.020c-0.113-0.193-0.319-0.32-0.555-0.32-0 0-0 0-0.001 0h-0.024c-0.236 0.001-0.442 0.128-0.554 0.317l-0.002 0.003c-0.392 0.666-0.935 1.205-1.585 1.58l-0.021 0.011c-0.627 0.363-1.38 0.578-2.183 0.578-0.005 0-0.011 0-0.016-0h0.001c-0.006 0-0.014 0-0.021 0-1.602 0-3.003-0.859-3.768-2.141l-0.011-0.020c-0.117-0.198-0.329-0.329-0.572-0.329s-0.455 0.131-0.57 0.326l-0.002 0.003c-0.394 0.663-0.938 1.2-1.588 1.573l-0.021 0.011c-0.628 0.363-1.382 0.577-2.185 0.577-0.004 0-0.007 0-0.011 0h0.001c-2.412 0-4.372-1.917-4.372-4.279v-3.603c0-0.012 0.008-0.020 0.020-0.020h26.2c0.012 0 0.020 0.008 0.020 0.020v3.603z"></path>
</symbol>
<symbol id="icon-facebook" viewBox="0 0 32 32">
<path d="M21.329 5.313h2.921v-5.088c-0.504-0.069-2.237-0.225-4.256-0.225-4.212 0-7.097 2.649-7.097 7.519v4.481h-4.648v5.688h4.648v14.312h5.699v-14.311h4.46l0.708-5.688h-5.169v-3.919c0.001-1.644 0.444-2.769 2.735-2.769z"></path>
</symbol>
<symbol id="icon-instagram" viewBox="0 0 32 32">
<path d="M31.969 9.408c-0.075-1.7-0.35-2.869-0.744-3.882-0.406-1.075-1.032-2.038-1.851-2.838-0.8-0.813-1.769-1.444-2.832-1.844-1.019-0.394-2.182-0.669-3.882-0.744-1.713-0.081-2.257-0.1-6.601-0.1s-4.888 0.019-6.595 0.094c-1.7 0.075-2.869 0.35-3.882 0.744-1.075 0.406-2.038 1.031-2.838 1.85-0.813 0.8-1.444 1.769-1.844 2.832-0.394 1.019-0.669 2.182-0.744 3.882-0.081 1.713-0.1 2.257-0.1 6.601s0.019 4.888 0.094 6.595c0.075 1.7 0.35 2.869 0.744 3.882 0.406 1.075 1.038 2.038 1.85 2.838 0.8 0.813 1.769 1.444 2.832 1.844 1.019 0.394 2.182 0.669 3.882 0.744 1.706 0.075 2.25 0.094 6.595 0.094s4.888-0.019 6.595-0.094c1.7-0.075 2.869-0.35 3.882-0.744 2.151-0.832 3.851-2.532 4.682-4.682 0.394-1.019 0.669-2.182 0.744-3.882 0.075-1.707 0.094-2.251 0.094-6.595s-0.006-4.888-0.081-6.595zM29.087 22.473c-0.069 1.563-0.331 2.407-0.55 2.969-0.538 1.394-1.644 2.5-3.038 3.038-0.563 0.219-1.413 0.481-2.969 0.55-1.688 0.075-2.194 0.094-6.464 0.094s-4.782-0.019-6.464-0.094c-1.563-0.069-2.407-0.331-2.969-0.55-0.694-0.256-1.325-0.663-1.838-1.194-0.531-0.519-0.938-1.144-1.194-1.838-0.219-0.563-0.481-1.413-0.55-2.969-0.075-1.688-0.094-2.194-0.094-6.464s0.019-4.782 0.094-6.464c0.069-1.563 0.331-2.407 0.55-2.969 0.256-0.694 0.663-1.325 1.2-1.838 0.519-0.531 1.144-0.938 1.838-1.194 0.563-0.219 1.413-0.481 2.969-0.55 1.688-0.075 2.194-0.094 6.464-0.094 4.276 0 4.782 0.019 6.464 0.094 1.563 0.069 2.407 0.331 2.969 0.55 0.694 0.256 1.325 0.662 1.838 1.194 0.531 0.519 0.938 1.144 1.194 1.838 0.219 0.563 0.481 1.413 0.55 2.969 0.075 1.688 0.094 2.194 0.094 6.464s-0.019 4.77-0.094 6.458z"></path>
<path d="M16.059 7.783c-4.538 0-8.22 3.682-8.22 8.22s3.682 8.22 8.22 8.22c4.539 0 8.22-3.682 8.22-8.22s-3.682-8.22-8.22-8.22zM16.059 21.335c-2.944 0-5.332-2.388-5.332-5.332s2.388-5.332 5.332-5.332c2.944 0 5.332 2.388 5.332 5.332s-2.388 5.332-5.332 5.332z"></path>
<path d="M26.524 7.458c0 1.060-0.859 1.919-1.919 1.919s-1.919-0.859-1.919-1.919c0-1.060 0.859-1.919 1.919-1.919s1.919 0.859 1.919 1.919z"></path>
</symbol>
<symbol id="icon-linkedin" viewBox="0 0 32 32">
<path d="M31.992 32v-0.001h0.008v-11.736c0-5.741-1.236-10.164-7.948-10.164-3.227 0-5.392 1.771-6.276 3.449h-0.093v-2.913h-6.364v21.364h6.627v-10.579c0-2.785 0.528-5.479 3.977-5.479 3.399 0 3.449 3.179 3.449 5.657v10.401h6.62z"></path>
<path d="M0.528 10.636h6.635v21.364h-6.635v-21.364z"></path>
<path d="M3.843 0c-2.121 0-3.843 1.721-3.843 3.843s1.721 3.879 3.843 3.879c2.121 0 3.843-1.757 3.843-3.879-0.001-2.121-1.723-3.843-3.843-3.843v0z"></path>
</symbol>
<symbol id="icon-play" viewBox="0 0 32 32">
<path d="M30.662 5.003c-4.488-0.645-9.448-1.003-14.662-1.003s-10.174 0.358-14.662 1.003c-0.86 3.366-1.338 7.086-1.338 10.997s0.477 7.63 1.338 10.997c4.489 0.645 9.448 1.003 14.662 1.003s10.174-0.358 14.662-1.003c0.86-3.366 1.338-7.086 1.338-10.997s-0.477-7.63-1.338-10.997zM12 22v-12l10 6-10 6z"></path>
</symbol>
<symbol id="icon-menu" viewBox="0 0 24 14" xmlns="http://www.w3.org/2000/svg">
<path d="M0.571289 0H23.4284V2.28571H0.571289V0ZM6.28557 5.71429H23.4284V8H6.28557V5.71429ZM13.4284 11.4286H23.4284V13.7143H13.4284V11.4286Z" />
</symbol> 
</defs>
</svg>
